<?xml version="1.0" standalone="no"?>
<!DOCTYPE svg PUBLIC "-//W3C//DTD SVG 20010904//EN"
 "http://www.w3.org/TR/2001/REC-SVG-20010904/DTD/svg10.dtd">
<svg version="1.0" xmlns="http://www.w3.org/2000/svg"
 width="823.000000pt" height="823.000000pt" viewBox="0 0 823.000000 823.000000"
 preserveAspectRatio="xMidYMid meet">
<metadata>
Created by potrace 1.14, written by Peter Selinger 2001-2017
</metadata>
<g transform="translate(0.000000,823.000000) scale(0.100000,-0.100000)"
fill="#000000" stroke="none">
<path d="M0 4115 l0 -3855 4115 0 4115 0 0 3855 0 3855 -4115 0 -4115 0 0
-3855z m4130 3685 c15 -16 35 -30 44 -30 9 0 16 -4 16 -10 0 -5 18 -10 40 -10
l40 0 0 -40 c0 -22 -4 -40 -10 -40 -5 0 -10 -12 -10 -26 0 -50 -15 -54 -190
-54 -175 0 -190 4 -190 54 0 14 -4 26 -10 26 -5 0 -10 18 -10 40 l0 40 40 0
c22 0 40 5 40 10 0 6 8 10 18 10 9 0 28 14 42 30 20 24 33 29 68 30 36 0 49
-5 72 -30z m110 -290 c13 -18 26 -20 132 -20 72 0 118 -4 118 -10 0 -6 30 -10
70 -10 40 0 70 -4 70 -10 0 -5 14 -10 30 -10 17 0 30 -4 30 -10 0 -6 27 -10
60 -10 33 0 60 -4 60 -10 0 -5 22 -10 48 -10 36 0 51 -5 62 -20 10 -14 26 -20
52 -20 21 0 38 -4 38 -10 0 -5 18 -10 40 -10 22 0 40 -4 40 -10 0 -5 9 -10 20
-10 11 0 20 -4 20 -10 0 -5 14 -10 30 -10 17 0 30 -4 30 -10 0 -5 17 -10 38
-10 26 0 42 -6 52 -20 8 -11 22 -20 32 -20 10 0 18 -4 18 -10 0 -5 14 -10 30
-10 17 0 30 -4 30 -10 0 -5 13 -10 28 -10 16 0 34 -8 42 -20 8 -11 22 -20 32
-20 10 0 18 -4 18 -10 0 -5 13 -10 28 -10 16 0 34 -8 42 -20 8 -11 22 -20 32
-20 10 0 18 -4 18 -10 0 -5 8 -10 18 -10 10 0 24 -9 32 -20 8 -11 22 -20 32
-20 10 0 18 -4 18 -10 0 -5 9 -10 20 -10 11 0 20 -4 20 -10 0 -5 8 -10 18 -10
10 0 24 -9 32 -20 8 -11 21 -20 28 -20 8 0 27 -13 42 -30 15 -16 35 -30 44
-30 9 0 16 -4 16 -10 0 -5 7 -10 16 -10 9 0 29 -13 44 -30 15 -16 33 -30 40
-30 6 0 33 -22 60 -50 27 -27 54 -50 60 -50 6 0 51 -40 100 -90 49 -49 96 -90
105 -90 8 0 15 -7 15 -15 0 -9 45 -60 100 -115 55 -55 100 -104 100 -110 0 -7
18 -29 40 -50 22 -21 40 -45 40 -52 0 -7 9 -20 20 -28 11 -8 20 -21 20 -30 0
-9 9 -22 20 -30 11 -8 20 -21 20 -28 0 -8 14 -27 30 -42 17 -15 30 -34 30 -42
0 -7 9 -20 20 -28 11 -8 20 -22 20 -32 0 -10 5 -18 10 -18 6 0 10 -8 10 -18 0
-10 9 -24 20 -32 11 -8 20 -22 20 -32 0 -10 5 -18 10 -18 6 0 10 -9 10 -20 0
-11 5 -20 10 -20 6 0 10 -8 10 -18 0 -10 9 -24 20 -32 12 -8 20 -26 20 -42 0
-15 5 -28 10 -28 6 0 10 -8 10 -18 0 -10 9 -24 20 -32 12 -8 20 -26 20 -42 0
-15 5 -28 10 -28 6 0 10 -13 10 -28 0 -16 8 -34 20 -42 12 -8 20 -26 20 -42 0
-15 5 -28 10 -28 6 0 10 -13 10 -28 0 -16 8 -34 20 -42 14 -10 20 -26 20 -52
0 -21 5 -38 10 -38 6 0 10 -18 10 -40 0 -22 5 -40 10 -40 6 0 10 -13 10 -30 0
-16 5 -30 10 -30 6 0 10 -9 10 -20 0 -11 5 -20 10 -20 6 0 10 -22 10 -50 0
-27 5 -50 10 -50 6 0 10 -27 10 -60 0 -33 4 -60 10 -60 6 0 10 -9 10 -20 0
-11 5 -20 10 -20 6 0 10 -33 10 -80 0 -47 4 -80 10 -80 6 0 10 -50 10 -130 0
-80 4 -130 10 -130 6 0 10 -22 10 -50 0 -43 3 -50 20 -50 19 0 20 -7 20 -100
0 -60 -4 -100 -10 -100 -5 0 -10 -9 -10 -20 0 -11 -4 -20 -10 -20 -5 0 -10
-22 -10 -50 0 -27 -4 -50 -10 -50 -6 0 -10 -47 -10 -120 0 -73 -4 -120 -10
-120 -6 0 -10 -30 -10 -70 0 -40 -4 -70 -10 -70 -5 0 -10 -9 -10 -20 0 -11 -4
-20 -10 -20 -6 0 -10 -27 -10 -60 0 -33 -4 -60 -10 -60 -5 0 -10 -18 -10 -40
0 -22 -4 -40 -10 -40 -5 0 -10 -13 -10 -30 0 -16 -4 -30 -10 -30 -5 0 -10 -13
-10 -30 0 -16 -4 -30 -10 -30 -5 0 -10 -18 -10 -40 0 -22 -4 -40 -10 -40 -5 0
-10 -13 -10 -30 0 -16 -4 -30 -10 -30 -5 0 -10 -9 -10 -20 0 -11 -4 -20 -10
-20 -5 0 -10 -13 -10 -30 0 -16 -4 -30 -10 -30 -5 0 -10 -13 -10 -28 0 -16 -8
-34 -20 -42 -12 -8 -20 -26 -20 -42 0 -15 -4 -28 -10 -28 -5 0 -10 -9 -10 -20
0 -11 -4 -20 -10 -20 -5 0 -10 -9 -10 -20 0 -11 -4 -20 -10 -20 -5 0 -10 -9
-10 -20 0 -11 -4 -20 -10 -20 -5 0 -10 -9 -10 -20 0 -11 -4 -20 -10 -20 -5 0
-10 -8 -10 -18 0 -10 -9 -24 -20 -32 -12 -8 -20 -26 -20 -42 0 -15 -4 -28 -10
-28 -5 0 -10 -7 -10 -16 0 -9 -14 -29 -30 -44 -18 -17 -30 -38 -30 -54 0 -19
-5 -26 -20 -26 -13 0 -20 -7 -20 -20 0 -11 -4 -20 -10 -20 -5 0 -10 -7 -10
-16 0 -9 -13 -29 -30 -44 -17 -15 -30 -35 -30 -44 0 -9 -4 -16 -10 -16 -5 0
-10 -9 -10 -20 0 -13 -7 -20 -20 -20 -12 0 -20 -7 -20 -16 0 -9 -13 -29 -30
-44 -16 -15 -30 -33 -30 -40 0 -6 -22 -33 -50 -60 -27 -27 -50 -54 -50 -59 0
-14 -226 -241 -240 -241 -6 0 -42 -31 -80 -70 -38 -38 -74 -70 -81 -70 -6 0
-24 -13 -39 -30 -15 -16 -34 -30 -42 -30 -7 0 -20 -9 -28 -20 -8 -11 -21 -20
-28 -20 -8 0 -27 -13 -42 -30 -15 -16 -35 -30 -44 -30 -9 0 -16 -4 -16 -10 0
-5 -7 -10 -16 -10 -9 0 -29 -13 -44 -30 -15 -16 -35 -30 -44 -30 -9 0 -16 -4
-16 -10 0 -5 -8 -10 -18 -10 -10 0 -24 -9 -32 -20 -8 -11 -22 -20 -32 -20 -10
0 -18 -4 -18 -10 0 -5 -13 -10 -28 -10 -16 0 -34 -8 -42 -20 -8 -11 -22 -20
-32 -20 -10 0 -18 -4 -18 -10 0 -5 -9 -10 -20 -10 -11 0 -20 -4 -20 -10 0 -5
-9 -10 -20 -10 -11 0 -20 -4 -20 -10 0 -5 -9 -10 -20 -10 -11 0 -20 -4 -20
-10 0 -5 -13 -10 -30 -10 -16 0 -30 -4 -30 -10 0 -5 -13 -10 -28 -10 -16 0
-34 -8 -42 -20 -8 -12 -26 -20 -42 -20 -15 0 -28 -4 -28 -10 0 -5 -17 -10 -38
-10 -26 0 -42 -6 -52 -20 -10 -14 -26 -20 -52 -20 -21 0 -38 -4 -38 -10 0 -5
-18 -10 -40 -10 -22 0 -40 -4 -40 -10 0 -5 -9 -10 -20 -10 -11 0 -20 -4 -20
-10 0 -5 -18 -10 -40 -10 -22 0 -40 -4 -40 -10 0 -6 -27 -10 -60 -10 -33 0
-60 -4 -60 -10 0 -6 -30 -10 -70 -10 -40 0 -70 -4 -70 -10 0 -5 -13 -10 -30
-10 -16 0 -30 -4 -30 -10 0 -6 -43 -10 -109 -10 -78 0 -111 -4 -115 -12 -5
-10 -7 -10 -12 0 -7 14 -44 16 -44 2 0 -6 -63 -10 -170 -10 -107 0 -170 4
-170 10 0 6 -53 10 -140 10 -87 0 -140 4 -140 10 0 6 -13 10 -30 10 -16 0 -30
5 -30 10 0 6 -30 10 -70 10 -40 0 -70 4 -70 10 0 6 -27 10 -60 10 -33 0 -60 4
-60 10 0 6 -18 10 -40 10 -22 0 -40 5 -40 10 0 6 -9 10 -20 10 -11 0 -20 5
-20 10 0 6 -22 10 -50 10 -27 0 -50 5 -50 10 0 6 -13 10 -30 10 -16 0 -30 5
-30 10 0 6 -9 10 -20 10 -11 0 -20 5 -20 10 0 6 -13 10 -30 10 -16 0 -30 5
-30 10 0 6 -17 10 -38 10 -26 0 -42 6 -52 20 -8 11 -22 20 -32 20 -10 0 -18 5
-18 10 0 6 -13 10 -30 10 -16 0 -30 5 -30 10 0 6 -9 10 -20 10 -11 0 -20 5
-20 10 0 6 -9 10 -20 10 -11 0 -20 5 -20 10 0 6 -13 10 -30 10 -16 0 -30 5
-30 10 0 6 -8 10 -18 10 -10 0 -24 9 -32 20 -8 11 -22 20 -32 20 -10 0 -18 5
-18 10 0 6 -8 10 -18 10 -10 0 -24 9 -32 20 -8 11 -22 20 -32 20 -10 0 -18 5
-18 10 0 6 -13 10 -30 10 -23 0 -30 4 -30 20 0 13 -7 20 -20 20 -11 0 -20 5
-20 10 0 6 -8 10 -18 10 -10 0 -24 9 -32 20 -8 11 -21 20 -30 20 -9 0 -22 9
-30 20 -8 11 -21 20 -28 20 -8 0 -27 14 -42 30 -15 17 -33 30 -40 30 -6 0 -29
18 -50 40 -21 22 -44 40 -50 40 -7 0 -25 13 -40 30 -15 16 -35 30 -44 30 -9 0
-16 8 -16 20 0 11 -7 20 -15 20 -17 0 -245 224 -245 241 0 16 -26 39 -44 39
-9 0 -16 7 -16 16 0 9 -14 29 -30 44 -17 15 -30 33 -30 40 0 6 -18 29 -40 50
-22 21 -40 44 -40 50 0 7 -14 25 -30 40 -17 15 -30 35 -30 44 0 9 -4 16 -10
16 -5 0 -10 8 -10 18 0 10 -9 24 -20 32 -11 8 -20 21 -20 28 0 8 -13 27 -30
42 -16 15 -30 35 -30 44 0 9 -4 16 -10 16 -5 0 -10 9 -10 20 0 11 -4 20 -10
20 -5 0 -10 8 -10 18 0 10 -9 24 -20 32 -12 8 -20 26 -20 42 0 15 -4 28 -10
28 -5 0 -10 8 -10 18 0 10 -9 24 -20 32 -12 8 -20 26 -20 42 0 15 -4 28 -10
28 -5 0 -10 9 -10 20 0 11 -4 20 -10 20 -5 0 -10 9 -10 20 0 11 -4 20 -10 20
-5 0 -10 9 -10 20 0 11 -4 20 -10 20 -5 0 -10 14 -10 30 0 17 -4 30 -10 30 -5
0 -10 9 -10 20 0 11 -4 20 -10 20 -5 0 -10 9 -10 20 0 11 -4 20 -10 20 -5 0
-10 18 -10 40 0 22 -4 40 -10 40 -5 0 -10 14 -10 30 0 17 -4 30 -10 30 -5 0
-10 9 -10 20 0 11 -4 20 -10 20 -5 0 -10 23 -10 50 0 28 -4 50 -10 50 -5 0
-10 18 -10 40 0 22 -4 40 -10 40 -5 0 -10 9 -10 20 0 11 -4 20 -10 20 -6 0
-10 27 -10 60 0 33 -4 60 -10 60 -6 0 -10 30 -10 70 0 40 -4 70 -10 70 -5 0
-10 14 -10 30 0 17 -4 30 -10 30 -7 0 -10 153 -10 440 0 287 3 440 10 440 6 0
10 14 10 30 0 17 5 30 10 30 6 0 10 30 10 70 0 40 4 70 10 70 6 0 10 27 10 60
0 33 4 60 10 60 6 0 10 9 10 20 0 11 5 20 10 20 6 0 10 18 10 40 0 22 5 40 10
40 6 0 10 23 10 50 0 28 5 50 10 50 6 0 10 9 10 20 0 11 5 20 10 20 6 0 10 14
10 30 0 17 5 30 10 30 6 0 10 14 10 30 0 17 5 30 10 30 6 0 10 14 10 30 0 17
5 30 10 30 6 0 10 9 10 20 0 11 5 20 10 20 6 0 10 14 10 30 0 17 5 30 10 30 6
0 10 9 10 20 0 11 5 20 10 20 6 0 10 9 10 20 0 11 5 20 10 20 6 0 10 9 10 20
0 11 5 20 10 20 6 0 10 13 10 28 0 16 8 34 20 42 11 8 20 22 20 32 0 10 5 18
10 18 6 0 10 9 10 20 0 11 5 20 10 20 6 0 10 8 10 18 0 10 9 24 20 32 11 8 20
25 20 38 0 14 13 36 30 52 17 15 30 35 30 44 0 9 5 16 10 16 6 0 10 8 10 18 0
10 9 24 20 32 11 8 20 21 20 28 0 8 14 27 30 42 17 15 30 33 30 40 0 6 18 29
40 50 22 21 40 46 40 54 0 9 5 16 10 16 6 0 10 9 10 20 0 13 7 20 20 20 11 0
20 7 20 15 0 9 31 47 70 85 38 38 70 76 70 85 0 8 7 15 16 15 20 0 44 24 44
44 0 9 7 16 15 16 9 0 47 32 85 70 38 39 76 70 85 70 8 0 15 7 15 16 0 18 24
44 40 44 7 0 25 14 40 30 15 17 33 30 40 30 7 0 25 14 40 30 15 17 35 30 44
30 9 0 16 5 16 10 0 6 9 10 20 10 13 0 20 7 20 20 0 13 7 20 20 20 11 0 20 5
20 10 0 6 8 10 18 10 10 0 24 9 32 20 8 11 22 20 32 20 10 0 18 5 18 10 0 6 9
10 20 10 11 0 20 5 20 10 0 6 8 10 18 10 10 0 24 9 32 20 8 11 22 20 32 20 10
0 18 5 18 10 0 6 8 10 18 10 10 0 24 9 32 20 8 12 26 20 42 20 15 0 28 5 28
10 0 6 8 10 18 10 10 0 24 9 32 20 8 12 26 20 42 20 15 0 28 5 28 10 0 6 9 10
20 10 11 0 20 5 20 10 0 6 13 10 28 10 16 0 34 8 42 20 10 14 26 20 52 20 21
0 38 5 38 10 0 6 13 10 28 10 16 0 34 8 42 20 10 14 26 20 52 20 21 0 38 5 38
10 0 6 22 10 48 10 36 0 51 5 62 20 11 15 26 20 62 20 26 0 48 5 48 10 0 6 27
10 60 10 33 0 60 4 60 10 0 6 14 10 30 10 17 0 30 5 30 10 0 6 27 10 60 10 33
0 60 4 60 10 0 6 53 10 140 10 87 0 140 4 140 10 0 6 14 10 30 10 17 0 30 5
30 10 0 6 59 10 158 10 146 0 159 -1 172 -20z m10 -6970 c0 -6 26 -10 58 -10
46 0 60 -4 72 -20 8 -11 22 -20 32 -20 10 0 18 -4 18 -10 0 -6 -120 -10 -340
-10 -220 0 -340 4 -340 10 0 6 8 10 18 10 10 0 24 9 32 20 12 17 26 20 92 20
45 0 78 4 78 10 0 6 53 10 140 10 87 0 140 -4 140 -10z"/>
<path d="M3830 7280 c0 -6 -43 -10 -110 -10 -67 0 -110 -4 -110 -10 0 -6 -27
-10 -60 -10 -33 0 -60 -4 -60 -10 0 -5 -22 -10 -50 -10 -27 0 -50 -4 -50 -10
0 -5 -22 -10 -50 -10 -27 0 -50 -4 -50 -10 0 -5 -13 -10 -30 -10 -16 0 -30 -4
-30 -10 0 -5 -13 -10 -30 -10 -16 0 -30 -4 -30 -10 0 -5 -18 -10 -40 -10 -22
0 -40 -4 -40 -10 0 -5 -13 -10 -30 -10 -16 0 -30 -4 -30 -10 0 -5 -9 -10 -20
-10 -11 0 -20 -4 -20 -10 0 -5 -13 -10 -30 -10 -16 0 -30 -4 -30 -10 0 -5 -13
-10 -30 -10 -16 0 -30 -4 -30 -10 0 -5 -9 -10 -20 -10 -11 0 -20 -4 -20 -10 0
-5 -9 -10 -20 -10 -11 0 -20 -4 -20 -10 0 -5 -13 -10 -30 -10 -16 0 -30 -4
-30 -10 0 -5 -9 -10 -20 -10 -11 0 -20 -4 -20 -10 0 -5 -9 -10 -20 -10 -11 0
-20 -4 -20 -10 0 -5 -9 -10 -20 -10 -11 0 -20 -4 -20 -10 0 -5 -8 -10 -18 -10
-10 0 -24 -9 -32 -20 -8 -11 -22 -20 -32 -20 -10 0 -18 -4 -18 -10 0 -5 -9
-10 -20 -10 -11 0 -20 -4 -20 -10 0 -5 -8 -10 -18 -10 -10 0 -24 -9 -32 -20
-8 -11 -21 -20 -30 -20 -9 0 -22 -9 -30 -20 -8 -11 -22 -20 -32 -20 -10 0 -18
-4 -18 -10 0 -5 -7 -10 -16 -10 -9 0 -29 -13 -44 -30 -15 -16 -33 -30 -40 -30
-6 0 -29 -18 -50 -40 -21 -22 -44 -40 -50 -40 -6 0 -38 -27 -70 -60 -32 -33
-64 -60 -70 -60 -14 0 -240 -227 -240 -241 0 -5 -22 -32 -50 -59 -27 -27 -50
-54 -50 -60 0 -6 -18 -29 -40 -50 -22 -21 -40 -46 -40 -54 0 -9 -4 -16 -10
-16 -5 0 -10 -7 -10 -16 0 -9 -13 -29 -30 -44 -16 -15 -30 -34 -30 -42 0 -7
-9 -20 -20 -28 -11 -8 -20 -22 -20 -32 0 -10 -4 -18 -10 -18 -5 0 -10 -8 -10
-18 0 -10 -9 -24 -20 -32 -11 -8 -20 -22 -20 -32 0 -10 -4 -18 -10 -18 -5 0
-10 -9 -10 -20 0 -11 -4 -20 -10 -20 -5 0 -10 -8 -10 -18 0 -10 -9 -24 -20
-32 -11 -8 -20 -22 -20 -32 0 -10 -4 -18 -10 -18 -5 0 -10 -13 -10 -28 0 -16
-8 -34 -20 -42 -12 -8 -20 -26 -20 -42 0 -15 -4 -28 -10 -28 -5 0 -10 -9 -10
-20 0 -11 -4 -20 -10 -20 -5 0 -10 -13 -10 -30 0 -16 -4 -30 -10 -30 -5 0 -10
-9 -10 -20 0 -11 -4 -20 -10 -20 -5 0 -10 -13 -10 -30 0 -16 -4 -30 -10 -30
-5 0 -10 -13 -10 -30 0 -16 -4 -30 -10 -30 -5 0 -10 -9 -10 -20 0 -11 -4 -20
-10 -20 -5 0 -10 -18 -10 -40 0 -22 -4 -40 -10 -40 -5 0 -10 -18 -10 -40 0
-22 -4 -40 -10 -40 -5 0 -10 -13 -10 -30 0 -16 -4 -30 -10 -30 -5 0 -10 -22
-10 -50 0 -27 -4 -50 -10 -50 -6 0 -10 -27 -10 -60 0 -33 -4 -60 -10 -60 -6 0
-10 -30 -10 -70 0 -40 -4 -70 -10 -70 -6 0 -10 -43 -10 -110 0 -67 -4 -110
-10 -110 -6 0 -10 -50 -10 -130 0 -80 4 -130 10 -130 6 0 10 -47 10 -120 0
-73 4 -120 10 -120 6 0 10 -30 10 -70 0 -40 4 -70 10 -70 6 0 10 -27 10 -60 0
-33 4 -60 10 -60 6 0 10 -22 10 -50 0 -27 5 -50 10 -50 6 0 10 -13 10 -30 0
-16 5 -30 10 -30 6 0 10 -18 10 -40 0 -22 5 -40 10 -40 6 0 10 -18 10 -40 0
-22 5 -40 10 -40 6 0 10 -9 10 -20 0 -11 5 -20 10 -20 6 0 10 -13 10 -30 0
-16 5 -30 10 -30 6 0 10 -13 10 -30 0 -16 5 -30 10 -30 6 0 10 -9 10 -20 0
-11 5 -20 10 -20 6 0 10 -13 10 -30 0 -16 5 -30 10 -30 6 0 10 -9 10 -20 0
-11 5 -20 10 -20 6 0 10 -13 10 -28 0 -16 8 -34 20 -42 12 -8 20 -26 20 -42 0
-15 5 -28 10 -28 6 0 10 -8 10 -18 0 -10 9 -24 20 -32 11 -8 20 -22 20 -32 0
-10 5 -18 10 -18 6 0 10 -9 10 -20 0 -11 5 -20 10 -20 6 0 10 -8 10 -18 0 -10
9 -24 20 -32 11 -8 20 -22 20 -32 0 -10 5 -18 10 -18 6 0 10 -8 10 -18 0 -10
9 -24 20 -32 11 -8 20 -21 20 -30 0 -9 9 -22 20 -30 11 -8 20 -21 20 -30 0 -9
9 -22 20 -30 11 -8 20 -21 20 -28 0 -8 14 -27 30 -42 17 -15 30 -33 30 -40 0
-6 23 -33 50 -60 28 -27 50 -54 50 -59 0 -15 327 -341 341 -341 6 0 28 -18 49
-40 21 -22 44 -40 50 -40 7 0 25 -13 40 -30 15 -16 33 -30 40 -30 7 0 25 -13
40 -30 15 -16 35 -30 44 -30 9 0 16 -4 16 -10 0 -5 8 -10 18 -10 10 0 24 -9
32 -20 8 -11 21 -20 30 -20 9 0 22 -9 30 -20 8 -11 21 -20 30 -20 9 0 22 -9
30 -20 8 -11 26 -20 40 -20 14 0 32 -9 40 -20 8 -11 22 -20 32 -20 10 0 18 -4
18 -10 0 -5 9 -10 20 -10 11 0 20 -4 20 -10 0 -5 9 -10 20 -10 11 0 20 -4 20
-10 0 -5 9 -10 20 -10 11 0 20 -4 20 -10 0 -5 14 -10 30 -10 17 0 30 -4 30
-10 0 -5 9 -10 20 -10 11 0 20 -4 20 -10 0 -5 9 -10 20 -10 11 0 20 -4 20 -10
0 -5 14 -10 30 -10 17 0 30 -4 30 -10 0 -5 14 -10 30 -10 17 0 30 -4 30 -10 0
-5 9 -10 20 -10 11 0 20 -4 20 -10 0 -5 14 -10 30 -10 17 0 30 -4 30 -10 0 -5
18 -10 40 -10 22 0 40 -4 40 -10 0 -5 14 -10 30 -10 17 0 30 -4 30 -10 0 -5
18 -10 40 -10 22 0 40 -4 40 -10 0 -5 23 -10 50 -10 28 0 50 -4 50 -10 0 -5
23 -10 50 -10 28 0 50 -4 50 -10 0 -5 23 -10 50 -10 28 0 50 -4 50 -10 0 -6
47 -10 120 -10 73 0 120 -4 120 -10 0 -6 70 -10 190 -10 120 0 190 4 190 10 0
6 43 10 110 10 67 0 110 4 110 10 0 6 23 10 50 10 28 0 50 5 50 10 0 6 27 10
60 10 33 0 60 4 60 10 0 6 23 10 50 10 28 0 50 5 50 10 0 6 14 10 30 10 17 0
30 5 30 10 0 6 18 10 40 10 22 0 40 5 40 10 0 6 14 10 30 10 17 0 30 5 30 10
0 6 14 10 30 10 17 0 30 5 30 10 0 6 14 10 30 10 17 0 30 5 30 10 0 6 14 10
30 10 17 0 30 5 30 10 0 6 9 10 20 10 11 0 20 5 20 10 0 6 9 10 20 10 11 0 20
5 20 10 0 6 14 10 30 10 17 0 30 5 30 10 0 6 9 10 20 10 11 0 20 5 20 10 0 6
9 10 20 10 11 0 20 5 20 10 0 6 9 10 20 10 11 0 20 5 20 10 0 6 9 10 20 10 11
0 20 5 20 10 0 6 9 10 20 10 11 0 20 5 20 10 0 6 9 10 20 10 11 0 20 5 20 10
0 6 9 10 20 10 11 0 20 5 20 10 0 6 8 10 18 10 10 0 24 9 32 20 8 11 21 20 30
20 9 0 22 9 30 20 8 11 21 20 30 20 9 0 22 9 30 20 8 11 21 20 30 20 9 0 22 9
30 20 8 11 21 20 28 20 8 0 27 14 42 30 15 16 33 30 40 30 6 0 29 18 50 40 21
22 43 40 49 40 14 0 401 387 401 401 0 6 18 28 40 49 22 21 40 44 40 50 0 7
14 25 30 40 17 15 30 34 30 42 0 7 9 20 20 28 11 8 20 21 20 30 0 9 9 22 20
30 11 8 20 21 20 30 0 9 9 22 20 30 11 8 20 22 20 32 0 10 5 18 10 18 6 0 10
9 10 20 0 11 5 20 10 20 6 0 10 8 10 18 0 10 9 24 20 32 11 8 20 22 20 32 0
10 5 18 10 18 6 0 10 9 10 20 0 11 5 20 10 20 6 0 10 9 10 20 0 11 5 20 10 20
6 0 10 9 10 20 0 11 5 20 10 20 6 0 10 13 10 28 0 16 8 34 20 42 12 8 20 26
20 42 0 15 5 28 10 28 6 0 10 14 10 30 0 17 5 30 10 30 6 0 10 9 10 20 0 11 5
20 10 20 6 0 10 14 10 30 0 17 5 30 10 30 6 0 10 14 10 30 0 17 5 30 10 30 6
0 10 14 10 30 0 17 5 30 10 30 6 0 10 14 10 30 0 17 5 30 10 30 6 0 10 18 10
40 0 22 5 40 10 40 6 0 10 23 10 50 0 28 5 50 10 50 6 0 10 18 10 40 0 22 5
40 10 40 6 0 10 27 10 60 0 33 4 60 10 60 6 0 10 37 10 90 0 53 4 90 10 90 6
0 10 97 10 270 0 173 -4 270 -10 270 -6 0 -10 40 -10 100 0 60 -4 100 -10 100
-6 0 -10 30 -10 70 0 40 -4 70 -10 70 -5 0 -10 14 -10 30 0 17 -4 30 -10 30
-5 0 -10 23 -10 50 0 28 -4 50 -10 50 -5 0 -10 18 -10 40 0 22 -4 40 -10 40
-5 0 -10 14 -10 30 0 17 -4 30 -10 30 -5 0 -10 14 -10 30 0 17 -4 30 -10 30
-5 0 -10 18 -10 40 0 22 -4 40 -10 40 -5 0 -10 9 -10 20 0 11 -4 20 -10 20 -5
0 -10 9 -10 20 0 11 -4 20 -10 20 -5 0 -10 14 -10 30 0 17 -4 30 -10 30 -5 0
-10 14 -10 30 0 17 -4 30 -10 30 -5 0 -10 9 -10 20 0 11 -4 20 -10 20 -5 0
-10 9 -10 20 0 11 -4 20 -10 20 -5 0 -10 9 -10 20 0 11 -4 20 -10 20 -5 0 -10
9 -10 20 0 11 -4 20 -10 20 -5 0 -10 9 -10 20 0 11 -4 20 -10 20 -5 0 -10 9
-10 20 0 11 -4 20 -10 20 -5 0 -10 8 -10 18 0 10 -9 24 -20 32 -11 8 -20 22
-20 32 0 10 -4 18 -10 18 -5 0 -10 8 -10 18 0 10 -9 24 -20 32 -11 8 -20 22
-20 32 0 10 -4 18 -10 18 -5 0 -10 7 -10 16 0 9 -13 29 -30 44 -16 15 -30 33
-30 40 0 7 -13 25 -30 40 -16 15 -30 33 -30 40 0 7 -13 25 -30 40 -17 15 -30
33 -30 40 0 6 -18 29 -40 50 -22 21 -40 43 -40 49 0 14 -266 281 -281 281 -5
0 -32 23 -59 50 -27 28 -54 50 -60 50 -7 0 -25 14 -40 30 -15 17 -33 30 -40
30 -7 0 -25 14 -40 30 -15 17 -34 30 -42 30 -7 0 -20 9 -28 20 -8 11 -21 20
-30 20 -9 0 -22 9 -30 20 -8 11 -21 20 -30 20 -9 0 -22 9 -30 20 -8 11 -22 20
-32 20 -10 0 -18 5 -18 10 0 6 -9 10 -20 10 -11 0 -20 5 -20 10 0 6 -8 10 -18
10 -10 0 -24 9 -32 20 -8 11 -22 20 -32 20 -10 0 -18 5 -18 10 0 6 -9 10 -20
10 -11 0 -20 5 -20 10 0 6 -9 10 -20 10 -11 0 -20 5 -20 10 0 6 -9 10 -20 10
-11 0 -20 5 -20 10 0 6 -13 10 -30 10 -16 0 -30 5 -30 10 0 6 -9 10 -20 10
-11 0 -20 5 -20 10 0 6 -9 10 -20 10 -11 0 -20 5 -20 10 0 6 -13 10 -30 10
-16 0 -30 5 -30 10 0 6 -13 10 -30 10 -16 0 -30 5 -30 10 0 6 -9 10 -20 10
-11 0 -20 5 -20 10 0 6 -13 10 -30 10 -16 0 -30 5 -30 10 0 6 -18 10 -40 10
-22 0 -40 5 -40 10 0 6 -13 10 -30 10 -16 0 -30 5 -30 10 0 6 -13 10 -30 10
-16 0 -30 5 -30 10 0 6 -27 10 -60 10 -33 0 -60 4 -60 10 0 6 -18 10 -40 10
-22 0 -40 5 -40 10 0 6 -27 10 -60 10 -33 0 -60 4 -60 10 0 6 -43 10 -110 10
-67 0 -110 4 -110 10 0 6 -77 10 -210 10 -133 0 -210 -4 -210 -10z m460 -240
c0 -6 40 -10 100 -10 60 0 100 -4 100 -10 0 -5 23 -10 50 -10 28 0 50 -4 50
-10 0 -5 18 -10 40 -10 22 0 40 -4 40 -10 0 -5 23 -10 50 -10 28 0 50 -4 50
-10 0 -5 18 -10 40 -10 22 0 40 -4 40 -10 0 -5 9 -10 20 -10 11 0 20 -4 20
-10 0 -5 18 -10 40 -10 22 0 40 -4 40 -10 0 -5 18 -10 40 -10 22 0 40 -4 40
-10 0 -5 9 -10 20 -10 11 0 20 -4 20 -10 0 -5 9 -10 20 -10 11 0 20 -4 20 -10
0 -5 13 -10 28 -10 16 0 34 -8 42 -20 8 -11 22 -20 32 -20 10 0 18 -4 18 -10
0 -5 9 -10 20 -10 11 0 20 -4 20 -10 0 -5 13 -10 28 -10 16 0 34 -8 42 -20 8
-11 22 -20 32 -20 10 0 18 -4 18 -10 0 -5 8 -10 18 -10 10 0 24 -9 32 -20 8
-11 22 -20 32 -20 10 0 18 -4 18 -10 0 -5 8 -10 18 -10 10 0 24 -9 32 -20 8
-11 22 -20 32 -20 10 0 18 -4 18 -10 0 -5 7 -10 16 -10 9 0 29 -13 44 -30 15
-16 33 -30 40 -30 7 0 25 -13 40 -30 15 -16 33 -30 40 -30 6 0 29 -18 50 -40
21 -22 43 -40 49 -40 14 0 321 -306 321 -320 0 -6 27 -38 60 -70 33 -32 60
-64 60 -70 0 -7 14 -25 30 -40 17 -15 30 -35 30 -44 0 -9 5 -16 10 -16 6 0 10
-8 10 -18 0 -10 9 -24 20 -32 11 -8 20 -22 20 -32 0 -10 5 -18 10 -18 6 0 10
-8 10 -18 0 -10 9 -24 20 -32 11 -8 20 -22 20 -32 0 -10 5 -18 10 -18 6 0 10
-8 10 -18 0 -10 9 -24 20 -32 11 -8 20 -22 20 -32 0 -10 5 -18 10 -18 6 0 10
-9 10 -20 0 -11 5 -20 10 -20 6 0 10 -9 10 -20 0 -11 5 -20 10 -20 6 0 10 -9
10 -20 0 -11 5 -20 10 -20 6 0 10 -13 10 -30 0 -16 5 -30 10 -30 6 0 10 -9 10
-20 0 -11 5 -20 10 -20 6 0 10 -9 10 -20 0 -11 5 -20 10 -20 6 0 10 -18 10
-40 0 -22 5 -40 10 -40 6 0 10 -13 10 -28 0 -16 8 -34 20 -42 14 -10 20 -26
20 -52 0 -21 5 -38 10 -38 6 0 10 -18 10 -40 0 -22 5 -40 10 -40 6 0 10 -13
10 -30 0 -16 5 -30 10 -30 6 0 10 -22 10 -50 0 -27 5 -50 10 -50 6 0 10 -37
10 -90 0 -75 3 -90 16 -90 43 0 44 -11 44 -370 l0 -342 -30 -28 c-29 -27 -30
-31 -30 -114 0 -51 -4 -86 -10 -86 -5 0 -10 -9 -10 -20 0 -11 -4 -20 -10 -20
-5 0 -10 -22 -10 -50 0 -27 -4 -50 -10 -50 -5 0 -10 -22 -10 -50 0 -27 -4 -50
-10 -50 -5 0 -10 -9 -10 -20 0 -11 -4 -20 -10 -20 -5 0 -10 -9 -10 -20 0 -11
-4 -20 -10 -20 -5 0 -10 -18 -10 -40 0 -22 -4 -40 -10 -40 -5 0 -10 -13 -10
-30 0 -16 -4 -30 -10 -30 -5 0 -10 -9 -10 -20 0 -11 -4 -20 -10 -20 -5 0 -10
-13 -10 -30 0 -16 -4 -30 -10 -30 -5 0 -10 -13 -10 -28 0 -16 -8 -34 -20 -42
-12 -8 -20 -26 -20 -42 0 -15 -4 -28 -10 -28 -5 0 -10 -8 -10 -18 0 -10 -9
-24 -20 -32 -11 -8 -20 -22 -20 -32 0 -10 -4 -18 -10 -18 -5 0 -10 -9 -10 -20
0 -11 -4 -20 -10 -20 -5 0 -10 -8 -10 -18 0 -10 -9 -24 -20 -32 -11 -8 -20
-22 -20 -32 0 -10 -4 -18 -10 -18 -5 0 -10 -7 -10 -16 0 -9 -13 -29 -30 -44
-16 -15 -30 -34 -30 -42 0 -7 -9 -20 -20 -28 -11 -8 -20 -21 -20 -28 0 -7 -18
-31 -40 -52 -22 -21 -40 -44 -40 -50 0 -7 -14 -25 -30 -40 -16 -15 -30 -33
-30 -39 0 -14 -286 -301 -301 -301 -5 0 -32 -22 -59 -50 -27 -27 -54 -50 -60
-50 -7 0 -25 -13 -40 -30 -15 -16 -34 -30 -42 -30 -7 0 -20 -9 -28 -20 -8 -11
-21 -20 -30 -20 -9 0 -22 -9 -30 -20 -8 -11 -21 -20 -30 -20 -9 0 -22 -9 -30
-20 -8 -11 -22 -20 -32 -20 -10 0 -18 -4 -18 -10 0 -5 -9 -10 -20 -10 -11 0
-20 -4 -20 -10 0 -5 -8 -10 -18 -10 -10 0 -24 -9 -32 -20 -8 -11 -22 -20 -32
-20 -10 0 -18 -4 -18 -10 0 -5 -9 -10 -20 -10 -11 0 -20 -4 -20 -10 0 -5 -9
-10 -20 -10 -11 0 -20 -4 -20 -10 0 -5 -9 -10 -20 -10 -11 0 -20 -4 -20 -10 0
-5 -9 -10 -20 -10 -11 0 -20 -4 -20 -10 0 -5 -13 -10 -28 -10 -16 0 -34 -8
-42 -20 -8 -12 -26 -20 -42 -20 -15 0 -28 -4 -28 -10 0 -5 -13 -10 -30 -10
-16 0 -30 -4 -30 -10 0 -5 -9 -10 -20 -10 -11 0 -20 -4 -20 -10 0 -5 -18 -10
-40 -10 -22 0 -40 -4 -40 -10 0 -5 -13 -10 -30 -10 -16 0 -30 -4 -30 -10 0 -5
-13 -10 -30 -10 -16 0 -30 -4 -30 -10 0 -6 -27 -10 -60 -10 -33 0 -60 -4 -60
-10 0 -6 -27 -10 -60 -10 -33 0 -60 -4 -60 -10 0 -5 -18 -10 -40 -10 -22 0
-40 -4 -40 -10 0 -6 -30 -10 -70 -10 -40 0 -70 -4 -70 -10 0 -6 -87 -10 -240
-10 -153 0 -240 4 -240 10 0 6 -40 10 -100 10 -60 0 -100 4 -100 10 0 6 -13
10 -30 10 -16 0 -30 5 -30 10 0 6 -27 10 -60 10 -33 0 -60 4 -60 10 0 6 -22
10 -50 10 -27 0 -50 5 -50 10 0 6 -13 10 -30 10 -16 0 -30 5 -30 10 0 6 -18
10 -40 10 -22 0 -40 5 -40 10 0 6 -13 10 -30 10 -16 0 -30 5 -30 10 0 6 -13
10 -30 10 -16 0 -30 5 -30 10 0 6 -13 10 -30 10 -16 0 -30 5 -30 10 0 6 -13
10 -30 10 -16 0 -30 5 -30 10 0 6 -9 10 -20 10 -11 0 -20 5 -20 10 0 6 -9 10
-20 10 -11 0 -20 5 -20 10 0 6 -9 10 -20 10 -11 0 -20 5 -20 10 0 6 -9 10 -20
10 -11 0 -20 5 -20 10 0 6 -9 10 -20 10 -11 0 -20 5 -20 10 0 6 -9 10 -20 10
-11 0 -20 5 -20 10 0 6 -8 10 -18 10 -10 0 -24 9 -32 20 -8 11 -22 20 -32 20
-10 0 -18 5 -18 10 0 6 -8 10 -18 10 -10 0 -24 9 -32 20 -8 11 -22 20 -32 20
-10 0 -18 5 -18 10 0 6 -7 10 -16 10 -9 0 -29 14 -44 30 -15 17 -33 30 -40 30
-7 0 -25 14 -40 30 -15 17 -33 30 -40 30 -7 0 -25 14 -40 30 -15 17 -33 30
-40 30 -6 0 -29 18 -50 40 -21 22 -43 40 -49 40 -14 0 -241 226 -241 241 0 5
-22 32 -50 59 -27 27 -50 54 -50 60 0 7 -14 25 -30 40 -17 15 -30 34 -30 42 0
7 -9 20 -20 28 -11 8 -20 21 -20 28 0 8 -14 27 -30 42 -17 15 -30 35 -30 44 0
9 -4 16 -10 16 -5 0 -10 8 -10 18 0 10 -9 24 -20 32 -11 8 -20 21 -20 30 0 9
-9 22 -20 30 -11 8 -20 26 -20 40 0 14 -9 32 -20 40 -11 8 -20 22 -20 32 0 10
-4 18 -10 18 -5 0 -10 9 -10 20 0 11 -4 20 -10 20 -5 0 -10 9 -10 20 0 11 -4
20 -10 20 -5 0 -10 9 -10 20 0 11 -4 20 -10 20 -5 0 -10 9 -10 20 0 11 -4 20
-10 20 -5 0 -10 9 -10 20 0 11 -4 20 -10 20 -5 0 -10 14 -10 30 0 17 -4 30
-10 30 -5 0 -10 18 -10 40 0 22 -4 40 -10 40 -5 0 -10 13 -10 28 0 16 -8 34
-20 42 -14 10 -20 26 -20 52 0 21 -4 38 -10 38 -5 0 -10 23 -10 50 0 28 -4 50
-10 50 -5 0 -10 9 -10 20 0 11 -4 20 -10 20 -6 0 -10 27 -10 60 0 33 -4 60
-10 60 -7 0 -10 187 -10 540 0 353 3 540 10 540 6 0 10 27 10 60 0 33 4 60 10
60 6 0 10 9 10 20 0 11 5 20 10 20 6 0 10 18 10 40 0 22 5 40 10 40 6 0 10 18
10 40 0 22 5 40 10 40 6 0 10 9 10 20 0 11 5 20 10 20 6 0 10 14 10 30 0 17 5
30 10 30 6 0 10 14 10 30 0 17 5 30 10 30 6 0 10 13 10 28 0 16 8 34 20 42 12
8 20 26 20 42 0 15 5 28 10 28 6 0 10 9 10 20 0 11 5 20 10 20 6 0 10 9 10 20
0 11 5 20 10 20 6 0 10 9 10 20 0 11 5 20 10 20 6 0 10 13 10 28 0 16 8 34 20
42 11 8 20 22 20 32 0 10 5 18 10 18 6 0 10 8 10 18 0 10 9 24 20 32 11 8 20
22 20 32 0 10 5 18 10 18 6 0 10 7 10 16 0 9 14 29 30 44 17 15 30 34 30 42 0
7 9 20 20 28 11 8 20 21 20 30 0 9 9 22 20 30 11 8 20 20 20 28 0 7 27 40 60
72 33 32 60 64 60 70 0 14 267 280 281 280 6 0 28 18 49 40 21 22 44 40 50 40
7 0 25 14 40 30 15 17 33 30 40 30 7 0 25 14 40 30 15 17 35 30 44 30 9 0 16
5 16 10 0 6 8 10 18 10 10 0 24 9 32 20 8 11 21 20 30 20 9 0 22 9 30 20 8 11
22 20 32 20 10 0 18 5 18 10 0 6 9 10 20 10 11 0 20 5 20 10 0 6 8 10 18 10
10 0 24 9 32 20 8 11 22 20 32 20 10 0 18 5 18 10 0 6 14 10 30 10 17 0 30 5
30 10 0 6 8 10 18 10 10 0 24 9 32 20 8 12 26 20 42 20 15 0 28 5 28 10 0 6
13 10 28 10 16 0 34 8 42 20 10 14 26 20 52 20 21 0 38 5 38 10 0 6 14 10 30
10 17 0 30 5 30 10 0 6 14 10 30 10 17 0 30 5 30 10 0 6 18 10 40 10 22 0 40
5 40 10 0 6 23 10 50 10 28 0 50 5 50 10 0 6 14 10 30 10 17 0 30 5 30 10 0 6
23 10 50 10 28 0 50 5 50 10 0 6 40 10 100 10 60 0 100 4 100 10 0 6 93 10
260 10 167 0 260 -4 260 -10z"/>
<path d="M3910 4660 c0 -5 -8 -10 -18 -10 -10 0 -24 -9 -32 -20 -8 -11 -20
-20 -27 -20 -8 0 -43 -29 -78 -65 -46 -45 -65 -72 -65 -90 0 -14 -4 -25 -10
-25 -6 0 -10 -53 -10 -140 0 -87 4 -140 10 -140 6 0 10 -12 10 -26 0 -16 12
-37 30 -54 17 -15 30 -33 30 -39 0 -16 87 -101 103 -101 7 0 19 -9 27 -20 8
-11 22 -20 32 -20 10 0 18 -4 18 -10 0 -5 18 -10 40 -10 22 0 40 -4 40 -10 0
-6 30 -10 70 -10 40 0 70 4 70 10 0 6 17 10 38 10 26 0 42 6 52 20 8 12 26 20
42 20 15 0 28 5 28 10 0 6 9 10 20 10 12 0 20 7 20 16 0 8 18 33 40 54 22 21
40 46 40 54 0 9 5 16 10 16 6 0 10 18 10 40 0 22 5 40 10 40 6 0 10 40 10 100
0 60 -4 100 -10 100 -5 0 -10 23 -10 50 0 28 -4 50 -10 50 -5 0 -10 12 -10 26
0 16 -12 37 -30 54 -16 15 -30 33 -30 40 0 16 -25 40 -42 40 -8 0 -20 9 -28
20 -8 11 -22 20 -32 20 -10 0 -18 5 -18 10 0 6 -63 10 -170 10 -107 0 -170 -4
-170 -10z"/>
</g>
</svg>
