<svg xmlns="http://www.w3.org/2000/svg" width="960" height="960" preserveAspectRatio="xMidYMid meet" version="1.0" viewBox="0 0 720 720"><metadata>Created by potrace 1.14, written by Peter Selinger 2001-2017</metadata><g fill="#000" stroke="none"><path d="M3553 6716 c-4 -8 -21 -16 -38 -18 -27 -3 -30 -7 -33 -44 -2 -28 2 -47 12 -57 27 -27 18 -37 -31 -37 -47 0 -207 -26 -308 -50 -228 -54 -508 -193 -695 -345 -64 -53 -211 -198 -267 -265 -162 -192 -305 -492 -364 -760 -18 -86 -23 -144 -27 -322 -4 -244 4 -336 48 -503 95 -359 278 -655 560 -903 281 -247 660 -410 1018 -438 78 -7 82 -8 82 -30 0 -20 -5 -24 -29 -24 -15 0 -40 -9 -53 -20 -23 -18 -25 -25 -22 -81 3 -73 22 -99 71 -99 l35 0 -4 -107 -3 -108 -49 -70 c-27 -38 -74 -105 -105 -149 -31 -43 -68 -95 -82 -115 -29 -42 -160 -224 -165 -229 -1 -2 -19 2 -40 10 -23 8 -45 26 -60 50 -32 50 -107 123 -218 213 -60 48 -245 172 -286 191 -8 4 -17 10 -20 14 -20 25 -273 159 -302 160 -9 0 -20 5 -23 10 -15 24 -56 9 -103 -37 -77 -77 -164 -203 -178 -258 -3 -14 -10 -28 -15 -31 -5 -3 -9 -12 -9 -20 0 -8 -20 -34 -45 -57 -80 -75 -204 -239 -318 -420 -26 -39 -43 -57 -57 -57 -19 0 -75 -21 -136 -51 -31 -16 -51 -61 -104 -238 -18 -58 -20 -78 -11 -97 12 -27 63 -62 104 -71 15 -3 27 -11 27 -19 0 -7 16 -46 35 -88 l34 -75 -46 -143 c-36 -113 -54 -152 -82 -184 -49 -57 -91 -141 -91 -186 0 -32 5 -39 45 -65 25 -15 45 -31 45 -35 0 -14 109 -261 118 -267 21 -14 52 -100 52 -144 l0 -47 350 0 350 0 0 160 c0 159 0 160 31 217 52 97 93 163 101 163 5 0 8 -121 8 -270 l0 -270 1340 0 1340 0 0 272 c0 301 -1 296 59 186 88 -160 81 -136 81 -304 l0 -154 345 0 345 0 0 44 c0 31 10 62 35 107 60 109 135 273 135 295 0 7 19 26 43 40 23 15 45 32 49 38 25 37 -18 142 -92 226 -22 25 -40 50 -40 56 0 5 -18 65 -40 132 -22 66 -40 125 -40 131 0 5 14 39 30 74 17 36 30 75 30 86 0 14 6 21 19 21 36 0 101 43 120 79 9 17 10 30 3 45 -6 11 -18 48 -27 81 -51 179 -67 202 -166 235 -80 26 -108 45 -130 88 -57 110 -249 359 -331 430 -16 13 -28 31 -28 40 -1 61 -156 284 -233 335 -29 19 -67 23 -67 7 0 -5 -8 -10 -18 -10 -22 0 -245 -111 -262 -131 -3 -3 -34 -23 -69 -45 -35 -21 -75 -47 -90 -56 -14 -10 -33 -21 -41 -25 -8 -3 -17 -9 -20 -12 -3 -4 -31 -24 -62 -45 -32 -22 -58 -43 -58 -47 0 -4 -8 -10 -19 -14 -26 -8 -217 -197 -225 -222 -4 -12 -17 -24 -30 -27 -13 -3 -31 -9 -39 -12 -11 -4 -37 25 -88 98 -40 57 -100 141 -134 188 -34 47 -91 129 -128 182 l-67 98 0 105 0 105 33 0 c45 0 63 25 70 98 5 58 3 63 -20 82 -14 11 -39 20 -54 20 -24 0 -29 4 -29 24 0 22 5 23 76 30 675 57 1287 534 1516 1181 161 454 139 931 -63 1364 -222 475 -652 840 -1152 976 -106 29 -297 65 -344 65 -22 0 -33 5 -33 14 0 8 5 16 10 18 6 2 13 20 17 40 7 44 -8 68 -42 68 -12 0 -28 7 -35 15 -16 19 -76 20 -87 1z m297 -392 c395 -71 726 -266 976 -575 106 -130 232 -364 271 -503 59 -208 73 -304 73 -487 0 -325 -88 -613 -271 -889 -81 -123 -290 -333 -411 -412 -226 -149 -486 -246 -714 -266 -83 -8 -84 -7 -84 15 0 17 8 24 38 32 20 6 55 11 77 11 111 2 364 82 520 166 326 175 612 508 715 831 11 37 25 75 30 84 4 9 18 64 30 122 20 96 21 130 18 349 -4 219 -6 250 -27 313 -12 39 -31 99 -42 135 -58 185 -218 450 -357 593 -79 81 -202 182 -282 232 -73 46 -191 105 -209 105 -9 0 -21 4 -27 8 -21 19 -176 72 -274 94 -92 20 -131 23 -315 23 -184 0 -223 -3 -310 -23 -148 -34 -264 -76 -386 -138 -410 -210 -692 -572 -806 -1034 -26 -109 -27 -559 0 -670 25 -102 50 -174 86 -247 17 -34 31 -68 31 -75 0 -18 92 -178 139 -243 101 -139 254 -287 396 -382 145 -97 394 -196 575 -228 207 -36 200 -34 200 -59 0 -21 -3 -22 -57 -19 -95 7 -251 40 -365 77 -261 86 -502 246 -686 456 -337 385 -468 901 -355 1405 125 560 576 1025 1134 1169 76 20 224 45 289 50 93 6 291 -4 380 -20z m-340 -4099 c0 -39 -3 -45 -21 -45 -11 0 -30 -5 -42 -12 -18 -9 -20 -9 -12 3 6 8 24 33 39 57 16 23 30 42 32 42 2 0 4 -20 4 -45z m247 -51 c-1 -1 -17 1 -34 3 -32 5 -33 7 -33 51 l0 46 35 -49 c19 -27 33 -50 32 -51z m-349 -113 c-3 -62 19 -91 69 -91 l33 0 0 -51 0 -52 -70 6 c-81 7 -180 28 -180 39 0 7 58 96 70 108 3 3 18 24 34 48 16 23 33 42 37 42 5 0 8 -22 7 -49z m413 26 c44 -61 121 -179 117 -181 -9 -7 -118 -27 -179 -32 l-69 -7 0 52 c0 49 1 51 27 51 45 0 73 36 73 92 0 53 7 59 31 25z m-1721 -586 c0 -17 -4 -32 -9 -35 -17 -11 -41 6 -41 28 0 27 8 36 32 36 13 0 18 -8 18 -29z m3038 17 c17 -17 15 -45 -4 -52 -20 -8 -44 10 -44 34 0 31 26 40 48 18z" transform="translate(0.000000,720.000000) scale(0.100000,-0.100000)"/></g></svg>